<?xml version="1.0" standalone="no"?>
<!DOCTYPE svg PUBLIC "-//W3C//DTD SVG 20010904//EN"
 "http://www.w3.org/TR/2001/REC-SVG-20010904/DTD/svg10.dtd">
<svg version="1.0" xmlns="http://www.w3.org/2000/svg"
 width="226.000000pt" height="226.000000pt" viewBox="0 0 226.000000 226.000000"
 preserveAspectRatio="xMidYMid meet">
<metadata>
Created by potrace 1.14, written by Peter Selinger 2001-2017
</metadata>
<g transform="translate(0.000000,226.000000) scale(0.100000,-0.100000)"
fill="#000000" stroke="none">
<path d="M511 2233 c3 -20 -2 -25 -16 -13 -19 16 -20 3 0 -16 8 -9 19 -12 25
-9 5 3 10 1 10 -6 0 -7 7 -21 16 -30 9 -10 17 -30 17 -44 0 -21 2 -23 14 -14
11 10 11 14 1 21 -9 6 -6 7 8 4 13 -4 27 1 39 14 16 18 45 28 45 15 0 -15 -24
-53 -32 -49 -4 3 -6 10 -3 15 3 5 -1 6 -9 3 -20 -8 -21 -20 -2 -27 7 -3 16
-15 19 -26 3 -12 1 -19 -4 -15 -5 3 -9 11 -9 19 0 7 -7 16 -16 19 -22 9 -26 8
-18 -6 4 -7 3 -8 -4 -4 -8 5 -12 0 -12 -13 0 -11 -9 -22 -20 -26 -21 -7 -26
-20 -11 -30 11 -6 9 -64 -2 -82 -6 -9 -2 -13 12 -13 12 0 21 -4 21 -10 0 -5
-4 -10 -9 -10 -5 0 -11 -9 -14 -20 -4 -14 2 -24 16 -32 12 -7 25 -11 28 -11 4
1 17 -9 29 -23 23 -24 23 -24 4 -38 -10 -8 -23 -12 -28 -9 -5 3 -6 0 -4 -8 3
-8 11 -13 18 -11 11 3 11 0 0 -13 -10 -12 -16 -13 -27 -4 -8 7 -12 18 -9 24 2
7 -1 18 -7 25 -7 7 -7 10 -1 7 6 -3 10 4 10 18 0 13 -4 21 -10 18 -5 -3 -6 -1
-2 5 4 7 0 12 -10 12 -16 0 -16 -1 0 -18 15 -18 15 -20 -2 -35 -10 -9 -33 -18
-50 -20 -18 -2 -35 -7 -40 -12 -4 -5 0 -5 8 0 12 7 13 6 2 -6 -8 -9 -15 -10
-20 -4 -9 12 -26 17 -75 20 -51 3 -56 12 -16 24 32 9 30 10 -21 8 -38 -1 -54
-6 -52 -14 1 -8 -8 -13 -24 -13 -14 0 -23 4 -20 9 3 5 -1 14 -9 21 -13 11 -14
10 -9 -4 6 -15 2 -17 -32 -10 -22 4 -42 12 -46 18 -8 13 -128 19 -146 7 -9 -6
-12 -171 -10 -717 l3 -709 30 0 c17 1 45 4 64 8 27 6 32 4 27 -8 -3 -8 -1 -15
4 -15 6 0 10 -4 10 -10 0 -5 -18 -10 -41 -10 -32 0 -40 -3 -35 -15 8 -22 -6
-18 -37 10 l-27 26 0 -66 c0 -57 2 -65 19 -65 11 0 31 14 45 31 33 38 40 24
37 -71 -1 -34 -4 -41 -11 -30 -13 18 -2 -35 12 -63 7 -13 4 -30 -10 -58 l-19
-39 28 0 c18 0 29 6 32 17 4 17 5 17 6 1 1 -21 41 -25 42 -5 0 6 3 68 5 137 7
180 8 183 22 188 6 2 12 12 12 23 0 10 5 19 10 19 6 0 10 7 10 15 0 9 -9 15
-25 15 -37 0 -114 40 -108 57 3 7 12 13 20 13 12 0 14 7 8 33 -4 17 -8 41 -8
52 0 11 -6 23 -11 27 -7 5 -6 8 2 8 10 0 12 8 7 29 -5 25 -1 35 26 60 18 17
36 31 42 31 5 0 7 7 4 14 -4 10 -1 13 7 10 16 -6 51 45 48 68 -2 11 3 18 12
18 9 0 13 6 10 14 -3 8 0 17 5 21 6 3 9 11 6 16 -3 5 0 6 8 3 8 -3 18 0 23 7
4 7 3 10 -4 5 -23 -14 -20 13 4 39 14 16 19 25 10 22 -8 -3 -18 -2 -21 3 -4 6
0 10 8 10 7 0 20 11 27 25 7 13 18 22 23 18 6 -3 7 -1 3 5 -4 6 -26 10 -52 8
-25 -2 -47 2 -51 8 -3 6 -3 8 2 4 4 -4 14 -3 22 3 8 8 13 8 13 1 0 -13 27 -9
42 6 9 9 7 17 -8 34 -11 13 -19 33 -18 46 1 12 2 34 3 48 0 14 5 23 9 20 4 -2
9 5 9 17 2 18 0 19 -8 7 -13 -18 -8 -5 10 33 8 15 18 27 23 27 4 0 8 7 8 15 0
7 8 19 18 24 16 10 16 10 -2 11 -19 0 -19 0 -1 13 12 9 14 16 7 21 -14 9 11
40 56 67 17 12 32 27 32 35 0 9 5 12 10 9 6 -3 10 1 10 10 0 8 11 20 25 27 13
6 22 15 19 19 -3 5 0 9 5 9 6 0 10 5 9 12 -2 7 12 13 35 15 30 3 37 0 37 -15
0 -10 6 -24 13 -31 10 -11 9 -12 -1 -6 -12 6 -12 3 -2 -15 11 -20 8 -135 -4
-147 -2 -3 1 -24 8 -46 6 -23 9 -55 6 -72 -8 -45 19 -166 45 -200 22 -30 57
-100 69 -142 4 -13 15 -23 24 -23 15 0 15 -2 2 -10 -12 -8 -12 -10 5 -10 17 0
17 -2 5 -10 -12 -8 -11 -10 5 -10 15 0 21 -7 23 -27 3 -40 22 -93 32 -93 5 0
6 -7 3 -17 -4 -11 -3 -14 5 -9 8 5 10 2 6 -8 -4 -11 0 -16 11 -16 11 0 15 -5
12 -14 -4 -9 2 -17 14 -21 24 -8 21 -11 43 40 46 101 94 154 118 129 8 -8 -14
-74 -25 -74 -5 0 -6 -7 -3 -16 4 -9 2 -13 -5 -8 -8 4 -9 -1 -4 -16 4 -13 3
-20 -2 -17 -5 3 -16 -14 -25 -39 -16 -44 -16 -44 8 -50 13 -4 39 -3 57 0 17 4
44 8 58 9 28 3 71 30 64 40 -3 4 -2 5 1 2 9 -6 64 23 64 35 0 5 8 11 19 15 37
11 119 101 132 144 11 38 15 41 39 36 19 -4 31 -1 41 11 9 11 9 15 2 10 -9 -5
-11 -2 -7 8 3 9 10 16 14 16 4 0 13 13 19 30 5 16 15 30 20 30 6 0 11 5 11 10
0 6 -6 10 -14 10 -17 0 -27 45 -12 60 8 8 6 16 -9 27 -14 11 -16 17 -7 20 6 3
10 8 7 13 -8 12 26 42 41 36 7 -3 18 3 26 11 11 15 11 16 -4 10 -23 -8 -23 8
0 31 9 9 16 26 14 37 -2 12 2 32 7 45 10 22 11 20 9 -17 -1 -22 3 -47 9 -55
14 -17 14 -78 0 -78 -6 0 -8 -3 -5 -6 4 -3 -4 -30 -18 -59 -13 -32 -19 -57
-14 -60 14 -9 59 27 60 47 0 9 5 20 10 23 6 3 10 15 10 26 0 11 7 22 15 25 8
4 12 10 9 15 -3 5 0 9 7 9 8 0 10 12 6 36 -5 31 0 46 33 97 22 34 40 67 40 73
0 7 -12 22 -27 34 -20 15 -24 23 -15 29 20 12 13 109 -9 124 -20 15 -30 104
-12 111 15 6 115 -48 106 -57 -3 -4 -1 -7 5 -7 6 0 9 -6 6 -13 -3 -8 10 -24
31 -38 19 -13 38 -32 41 -41 3 -10 11 -18 17 -18 7 0 6 -4 -2 -9 -12 -8 -10
-12 12 -22 17 -8 23 -15 16 -19 -8 -6 -8 -13 0 -29 13 -24 44 -30 35 -6 -4 8
-1 15 5 15 6 0 11 -9 11 -20 0 -11 -7 -20 -16 -20 -8 0 -12 -5 -9 -10 4 -6 9
-8 13 -6 4 2 8 -8 8 -22 1 -15 4 -64 7 -108 6 -90 2 -98 -71 -140 -28 -16 -32
-23 -28 -48 3 -20 -1 -34 -12 -43 -11 -8 -12 -12 -4 -13 8 0 12 -17 12 -49 0
-48 0 -49 24 -38 13 7 23 14 21 17 -2 3 5 17 16 30 15 20 19 22 19 8 0 -10 -4
-18 -10 -18 -5 0 -10 -7 -10 -15 0 -8 9 -15 19 -15 12 0 21 -8 23 -20 2 -14 7
-17 17 -11 11 7 10 12 -6 28 -20 20 -21 77 -2 89 5 3 6 -3 2 -12 -5 -14 -3
-16 11 -11 10 4 23 -1 34 -14 9 -12 27 -25 40 -30 24 -9 30 -29 10 -29 -7 -1
1 -9 17 -18 57 -32 103 -85 59 -68 -8 3 -12 2 -9 -4 3 -6 18 -10 33 -10 18 0
23 -3 14 -9 -10 -6 -6 -16 17 -40 l31 -33 0 591 c0 325 -2 591 -4 591 -3 0
-16 -4 -30 -10 -17 -6 -34 -6 -48 1 -21 9 -21 9 4 4 15 -3 30 -1 33 5 3 5 15
10 26 10 22 0 27 35 7 43 -10 4 -10 6 0 6 7 1 12 16 12 41 0 42 -9 50 -30 25
-10 -12 -16 -13 -26 -4 -10 8 -14 8 -14 0 0 -6 5 -11 10 -11 6 0 10 -18 10
-40 0 -43 -14 -54 -23 -19 -8 30 -32 18 -30 -15 1 -20 -3 -26 -18 -26 -10 0
-19 -4 -19 -10 0 -5 -9 -10 -20 -10 -25 0 -25 -9 -2 -26 12 -10 13 -13 3 -14
-8 0 -19 -8 -26 -17 -7 -9 -20 -18 -30 -19 -9 -1 -14 1 -10 4 4 4 12 7 18 7 5
0 12 6 15 13 3 9 -3 11 -20 7 -12 -3 -36 -1 -53 4 -16 5 -24 10 -17 10 6 1 12
6 12 12 0 6 -7 9 -15 5 -8 -3 -15 -1 -15 4 0 5 -7 7 -15 4 -8 -4 -15 -11 -15
-16 0 -6 7 -8 15 -4 9 3 15 0 15 -8 0 -8 -9 -16 -20 -19 -11 -3 -20 -1 -20 4
0 5 -6 9 -14 9 -11 0 -13 9 -9 38 7 47 10 49 29 30 16 -15 68 -13 58 3 -3 5 2
9 10 9 24 0 29 19 10 37 -16 16 -16 16 -10 -5 6 -17 3 -22 -9 -22 -9 0 -13 5
-10 10 3 6 -4 10 -16 10 -21 0 -20 2 10 24 30 23 31 25 12 31 -12 3 -21 10
-21 15 0 4 -10 7 -23 6 -13 0 -24 -6 -24 -13 0 -6 7 -9 15 -5 10 3 13 1 8 -6
-5 -8 1 -12 16 -13 l23 0 -24 -10 c-18 -7 -27 -6 -33 3 -5 9 -7 4 -6 -12 3
-21 -1 -24 -29 -25 -38 0 -53 -12 -33 -26 11 -7 6 -8 -15 -3 -34 7 -62 30 -51
41 4 4 11 1 16 -7 5 -8 13 -11 17 -6 4 5 2 11 -4 13 -7 3 -13 11 -13 18 0 7
-6 16 -12 19 -7 3 -3 3 9 1 12 -3 24 -1 28 5 4 6 14 9 24 6 14 -5 13 -4 -1 8
-10 7 -18 26 -18 41 0 40 -9 27 -12 -18 -1 -27 -6 -36 -16 -32 -7 3 -17 5 -20
5 -4 0 0 5 8 11 11 8 12 12 3 16 -7 2 -13 11 -13 18 0 7 -6 15 -14 18 -15 6
-36 -11 -36 -28 0 -7 -11 -10 -28 -7 -18 2 -33 -2 -41 -12 -8 -9 -21 -16 -30
-16 -11 0 -7 6 12 19 28 18 26 28 -13 45 -8 3 -2 3 15 0 16 -3 34 -6 39 -7 10
-2 11 2 15 48 1 18 3 16 20 -8 l19 -29 10 29 c6 15 11 21 11 13 1 -10 6 -7 17
8 9 13 13 30 10 38 -12 32 13 1 34 -40 24 -51 50 -68 42 -30 -2 13 -8 27 -13
30 -17 10 -9 22 13 16 14 -3 19 -1 14 6 -4 6 3 12 16 14 18 2 23 9 21 28 -1
14 0 20 3 13 3 -7 18 -9 42 -6 36 6 55 20 46 34 -7 12 -474 10 -496 -2 -15 -8
-19 -8 -13 0 5 8 -32 11 -134 10 -78 -1 -141 -6 -141 -10 0 -5 -5 -9 -11 -9
-5 0 -7 4 -4 10 4 7 -85 9 -259 9 -146 -1 -266 -5 -266 -9 0 -3 10 -6 21 -6
12 1 24 -4 26 -10 7 -19 -28 -45 -56 -42 -14 2 -30 -2 -36 -9 -7 -8 -22 -9
-45 -4 -26 5 -35 12 -33 27 1 10 -9 27 -23 37 -13 10 -24 15 -23 10z m833 -15
c-3 -4 -10 -5 -18 -2 -7 3 -13 -2 -13 -10 0 -11 8 -14 25 -11 13 2 21 1 18 -3
-12 -11 -66 -10 -59 1 3 6 1 7 -5 3 -17 -10 -15 -29 1 -23 8 3 20 1 28 -5 10
-7 5 -8 -19 -5 -21 2 -37 -2 -45 -12 -10 -12 -9 -14 8 -7 11 4 16 4 12 0 -4
-4 0 -16 10 -26 13 -14 13 -18 2 -19 -8 0 -6 -4 6 -9 17 -8 17 -8 -7 -7 -21 1
-25 4 -16 15 8 9 8 16 0 24 -9 9 -16 8 -30 -6 -16 -18 -16 -19 3 -12 16 5 15
3 -5 -14 -14 -11 -29 -20 -34 -20 -6 0 -1 7 10 16 14 11 15 14 3 11 -9 -3 -22
-1 -30 4 -12 8 -12 10 1 19 12 8 10 10 -10 11 -24 2 -24 2 -2 6 12 2 22 8 22
13 0 4 -10 6 -22 3 -19 -4 -17 -2 6 11 31 18 50 22 26 6 -11 -8 -7 -10 17 -8
18 1 35 8 37 14 3 8 -2 11 -14 9 -11 -2 -22 1 -26 6 -3 5 0 8 8 7 7 -2 12 4
10 12 -3 12 -1 13 9 3 7 -7 20 -13 29 -13 13 1 12 3 -2 14 -15 11 -12 13 27
12 24 0 41 -4 39 -8z m399 5 c-13 -2 -33 -2 -45 0 -13 2 -3 4 22 4 25 0 35 -2
23 -4z m-198 -26 c16 -5 15 -5 -4 -4 -14 1 -26 9 -28 17 -3 10 -2 11 4 4 4 -7
17 -14 28 -17z m85 -3 c0 -12 -6 -15 -22 -10 -13 3 -27 6 -33 6 -5 0 -3 5 5
10 23 15 50 12 50 -6z m128 -16 c-5 -18 -12 -44 -16 -58 -5 -23 -6 -23 -13 -5
-11 28 -11 47 0 40 5 -3 12 -1 15 3 3 5 -7 15 -22 22 l-27 14 35 7 c19 3 36 7
37 8 1 0 -3 -14 -9 -31z m52 28 c0 -2 -7 -6 -15 -10 -8 -3 -15 -1 -15 4 0 6 7
10 15 10 8 0 15 -2 15 -4z m-210 -34 c0 -4 -16 -6 -35 -4 -19 2 -35 6 -35 8 0
2 16 4 35 4 19 0 35 -4 35 -8z m100 -6 c0 -24 -19 -66 -30 -66 -14 0 -12 47 3
53 6 3 2 6 -11 6 -31 1 -18 21 14 21 14 0 24 -6 24 -14z m-823 -11 c0 -8 -4
-15 -9 -15 -10 0 -11 14 -1 23 9 10 10 9 10 -8z m663 -5 c0 -5 -7 -10 -15 -10
-8 0 -15 5 -15 10 0 6 7 10 15 10 8 0 15 -4 15 -10z m-664 -29 c-3 -5 -19 -7
-35 -6 -24 2 -29 -1 -26 -16 2 -11 0 -19 -4 -19 -10 0 -21 37 -13 44 9 10 84
7 78 -3z m181 -6 c0 -8 -4 -12 -9 -9 -5 3 -6 10 -3 15 9 13 12 11 12 -6z m428
-1 c-9 -9 -19 -13 -23 -10 -3 4 0 11 8 16 24 15 33 11 15 -6z m-352 -14 c4 0
5 5 2 10 -3 6 3 10 14 10 12 0 21 -5 21 -11 0 -5 -4 -8 -9 -4 -5 3 -12 1 -16
-5 -3 -5 -15 -10 -25 -10 -24 0 -70 -21 -70 -32 0 -12 27 -10 33 2 3 6 4 5 3
-2 -2 -7 -15 -12 -30 -11 -14 1 -24 -2 -21 -6 2 -5 -3 -15 -13 -22 -14 -11
-15 -11 -5 1 10 11 10 17 0 29 -9 11 -9 13 0 8 6 -4 17 1 25 11 7 10 26 22 41
26 18 4 25 11 21 19 -5 9 -4 9 7 0 7 -7 17 -13 22 -13z m397 10 c0 -5 -2 -10
-4 -10 -3 0 -8 5 -11 10 -3 6 -1 10 4 10 6 0 11 -4 11 -10z m-670 -12 c0 -4
-4 -8 -9 -8 -6 0 -12 4 -15 8 -3 5 1 9 9 9 8 0 15 -4 15 -9z m170 2 c0 -5 -4
-10 -10 -10 -5 0 -10 5 -10 10 0 6 5 10 10 10 6 0 10 -4 10 -10z m-60 -10 c0
-5 -2 -10 -4 -10 -3 0 -8 5 -11 10 -3 6 -1 10 4 10 6 0 11 -4 11 -10z m537 -6
c-3 -3 -12 -4 -19 -1 -8 3 -5 6 6 6 11 1 17 -2 13 -5z m-337 -20 c0 -8 -19
-13 -24 -6 -3 5 1 9 9 9 8 0 15 -2 15 -3z m18 -35 c-2 -6 15 -13 37 -16 22 -2
51 -6 65 -8 14 -1 35 -3 48 -4 13 0 21 -5 18 -9 -3 -5 18 -9 47 -9 29 -1 55
-2 59 -2 4 -1 5 -10 3 -21 -2 -11 1 -20 6 -20 17 0 105 -96 123 -135 10 -20
19 -50 20 -65 1 -16 6 -33 11 -37 4 -4 5 -2 1 4 -5 9 -2 11 8 7 18 -7 11 -24
-10 -24 -8 0 -14 -5 -14 -11 0 -5 5 -7 10 -4 6 3 10 -3 10 -14 0 -23 -15 -28
-23 -8 -3 6 -6 0 -6 -15 -1 -26 -4 -28 -43 -28 -29 0 -38 -3 -29 -9 23 -15 2
-31 -39 -31 -31 0 -38 3 -34 15 4 8 1 15 -5 15 -6 0 -10 5 -9 12 2 6 -6 13
-17 15 l-20 3 20 -9 c19 -9 19 -10 -4 -10 -21 -1 -23 -4 -17 -32 3 -17 6 -38
6 -45 0 -8 7 -14 15 -14 8 0 15 7 15 15 0 8 5 15 11 15 17 0 4 -24 -19 -36
-12 -6 -19 -14 -15 -17 3 -4 -4 -7 -16 -7 -12 0 -19 4 -16 10 3 6 1 10 -4 10
-6 0 -11 8 -10 18 0 10 3 12 6 5 7 -18 23 -16 23 2 0 8 -6 25 -12 38 -7 12
-13 23 -14 25 -1 1 -9 -1 -18 -4 -14 -5 -15 -9 -4 -16 10 -7 10 -11 1 -15 -7
-2 -13 -11 -13 -18 0 -7 -14 -17 -31 -20 -18 -4 -27 -10 -22 -14 9 -6 33 -65
33 -82 0 -5 -12 -9 -26 -9 -14 0 -23 4 -19 10 7 12 -25 13 -42 2 -10 -7 -10
-14 0 -35 6 -15 16 -27 20 -27 5 0 6 -4 3 -9 -4 -5 7 -15 24 -23 42 -18 37
-28 -12 -28 -37 0 -47 5 -70 34 -16 19 -28 40 -28 45 0 6 -9 11 -20 11 -14 0
-19 -6 -19 -22 4 -59 -41 -104 -90 -91 -12 3 -21 1 -21 -6 0 -6 5 -11 10 -11
6 0 10 -10 10 -22 0 -17 -3 -19 -9 -10 -4 8 -12 13 -16 12 -4 -1 -15 10 -25
24 -9 15 -19 24 -22 20 -9 -8 -59 27 -52 37 3 5 0 9 -5 9 -6 0 -11 -4 -11 -9
0 -12 -52 -11 -67 1 -7 6 -13 23 -13 39 0 85 -63 136 -75 62 -10 -57 -13 -63
-30 -56 -13 5 -14 7 -3 14 8 6 1 9 -22 10 -19 0 -30 2 -25 5 6 2 9 34 9 71 -1
38 1 72 4 78 3 5 7 21 8 35 3 23 2 23 -10 7 -12 -16 -13 -13 -12 21 1 22 10
51 19 65 9 15 17 33 17 41 0 8 5 18 10 21 6 4 8 10 5 14 -2 5 21 34 53 64 88
86 114 106 130 99 10 -3 13 -1 8 6 -4 7 -1 12 9 12 8 0 23 9 32 19 9 11 23 17
31 13 10 -3 13 -1 8 6 -7 12 28 27 43 18 5 -3 11 3 14 14 4 16 14 20 49 20 25
0 48 -3 52 -7 9 -9 36 -13 35 -5 -2 12 1 22 6 22 3 0 4 -5 3 -11z m378 -3 c8
-8 11 -17 6 -20 -4 -2 -13 4 -20 15 -14 22 -7 25 14 5z m-956 -16 c0 -5 -4
-10 -10 -10 -5 0 -10 5 -10 10 0 6 5 10 10 10 6 0 10 -4 10 -10z m1083 -7 c-7
-2 -19 -2 -25 0 -7 3 -2 5 12 5 14 0 19 -2 13 -5z m-178 -53 c-3 -5 -12 -10
-18 -10 -7 0 -6 4 3 10 19 12 23 12 15 0z m440 -30 c-3 -5 -12 -10 -18 -10 -7
0 -6 4 3 10 19 12 23 12 15 0z m-1345 -45 c0 -8 -4 -15 -10 -15 -5 0 -10 7
-10 15 0 8 5 15 10 15 6 0 10 -7 10 -15z m1260 -31 c0 -2 -7 -4 -15 -4 -8 0
-15 4 -15 10 0 5 7 7 15 4 8 -4 15 -8 15 -10z m33 -21 c-7 -2 -21 -2 -30 0
-10 3 -4 5 12 5 17 0 24 -2 18 -5z m74 -9 c-3 -3 -12 -4 -19 -1 -8 3 -5 6 6 6
11 1 17 -2 13 -5z m26 -25 c-5 -5 -22 -4 -38 1 l-30 10 33 -5 c23 -3 31 -1 26
7 -5 7 -3 8 5 3 7 -4 9 -11 4 -16z m234 15 c-3 -3 -12 -4 -19 -1 -8 3 -5 6 6
6 11 1 17 -2 13 -5z m-1667 -54 c0 -5 -8 -10 -17 -10 -15 0 -16 2 -3 10 19 12
20 12 20 0z m857 -172 c-3 -8 -6 -5 -6 6 -1 11 2 17 5 13 3 -3 4 -12 1 -19z
m-27 -113 c0 -8 -3 -15 -6 -15 -3 0 -12 7 -20 15 -14 13 -13 15 5 15 12 0 21
-6 21 -15z m168 -84 c-7 -12 -16 -21 -20 -21 -10 0 3 33 16 42 17 11 18 2 4
-21z m57 20 c3 -5 1 -12 -5 -16 -5 -3 -10 1 -10 9 0 18 6 21 15 7z m-75 -56
c0 -17 -31 -75 -39 -75 -15 0 -14 16 4 50 13 26 35 41 35 25z m-590 -96 c0 -5
5 -7 10 -4 6 3 10 -1 10 -10 0 -10 -5 -13 -12 -9 -7 5 -8 3 -4 -5 7 -11 12
-53 17 -156 3 -47 -9 -64 -39 -59 -29 5 -62 37 -62 60 0 7 8 17 17 23 10 5 14
13 10 17 -4 5 -19 -4 -33 -19 -22 -24 -24 -33 -18 -73 3 -25 13 -48 20 -51 8
-3 14 -13 14 -23 0 -11 5 -22 10 -25 12 -7 4 -25 -11 -25 -6 0 -8 3 -5 8 6 11
-22 47 -31 38 -4 -4 -1 -11 7 -16 8 -5 11 -13 6 -17 -9 -10 -64 54 -72 85 -7
26 -20 29 -28 5 -3 -10 -4 -3 -2 15 2 28 0 31 -17 26 -14 -4 -17 -3 -12 7 6 9
3 10 -11 5 -10 -4 -15 -4 -12 0 4 4 -1 17 -11 30 -20 26 -18 64 4 64 7 0 12
10 11 22 0 11 5 23 12 25 8 3 10 -1 5 -13 -5 -13 -3 -16 10 -11 9 3 19 2 22
-3 4 -6 1 -10 -4 -10 -6 0 -11 -4 -11 -10 0 -5 6 -10 14 -10 8 0 18 -9 21 -20
8 -25 41 -45 50 -30 4 6 4 24 0 40 -5 25 -3 29 14 27 15 -1 19 -6 16 -18 -5
-14 0 -16 27 -14 29 2 33 6 35 31 2 29 2 29 -7 4 -8 -19 -9 -15 -5 22 4 46 22
88 37 88 5 0 8 -5 8 -11z m58 -29 c-2 -5 0 -9 3 -7 4 1 15 -5 25 -14 11 -9 34
-24 52 -33 24 -13 32 -23 32 -44 0 -17 8 -32 21 -40 15 -10 20 -21 16 -37 -3
-17 3 -30 17 -42 17 -15 18 -15 8 -1 -9 11 -9 17 -2 20 9 3 16 19 19 49 1 4
11 10 24 14 21 7 21 7 2 12 -41 10 -33 19 26 32 44 9 65 9 72 2 8 -8 7 -11 -3
-11 -11 0 -12 -2 -3 -8 9 -5 10 -17 4 -37 -6 -24 -13 -30 -32 -28 -13 1 -18
-1 -11 -3 18 -8 15 -32 -6 -43 -9 -5 -35 -13 -56 -17 -34 -6 -37 -8 -23 -19
11 -8 17 -26 17 -51 0 -39 -1 -39 -18 -17 -18 22 -76 34 -100 19 -13 -8 -32 0
-32 13 0 13 44 21 54 11 13 -13 26 -13 26 -1 0 5 -8 11 -17 13 -17 3 -22 22
-23 96 0 12 -5 22 -10 22 -6 0 -10 5 -10 10 0 6 7 10 15 10 28 0 15 30 -20 44
-19 8 -35 21 -35 28 0 9 -3 9 -10 -2 -7 -12 -10 -11 -15 5 -4 11 -10 27 -15
36 -5 9 -6 20 -3 23 9 9 13 7 11 -4z m-288 -20 c-19 -13 -30 -13 -30 0 0 6 10
10 23 10 18 0 19 -2 7 -10z m-40 -16 c0 -8 -5 -12 -10 -9 -6 4 -8 11 -5 16 9
14 15 11 15 -7z m367 -60 c-3 -3 -12 -4 -19 -1 -8 3 -5 6 6 6 11 1 17 -2 13
-5z m43 -8 c0 -2 -7 -6 -15 -10 -8 -3 -15 -1 -15 4 0 6 7 10 15 10 8 0 15 -2
15 -4z m-35 -207 c11 -17 -1 -21 -15 -4 -8 9 -8 15 -2 15 6 0 14 -5 17 -11z
m-85 -29 c0 -5 -4 -10 -10 -10 -5 0 -10 5 -10 10 0 6 5 10 10 10 6 0 10 -4 10
-10z"/>
<path d="M1209 2148 c-6 -20 -3 -46 5 -41 31 18 37 26 24 34 -13 8 -27 12 -29
7z"/>
<path d="M1488 1593 c7 -3 16 -2 19 1 4 3 -2 6 -13 5 -11 0 -14 -3 -6 -6z"/>
<path d="M970 1325 c0 -8 5 -15 10 -15 6 0 10 7 10 15 0 8 -4 15 -10 15 -5 0
-10 -7 -10 -15z"/>
<path d="M730 1080 c0 -5 7 -10 15 -10 8 0 15 5 15 10 0 6 -7 10 -15 10 -8 0
-15 -4 -15 -10z"/>
<path d="M1121 1059 c-1 -19 25 -33 34 -19 4 6 0 10 -9 10 -8 0 -17 6 -19 13
-4 7 -6 6 -6 -4z"/>
<path d="M1238 1043 c7 -3 16 -2 19 1 4 3 -2 6 -13 5 -11 0 -14 -3 -6 -6z"/>
<path d="M2035 2230 c-3 -5 3 -10 15 -10 12 0 18 5 15 10 -3 6 -10 10 -15 10
-5 0 -12 -4 -15 -10z"/>
<path d="M2100 2236 c0 -2 7 -6 15 -10 8 -3 15 -1 15 4 0 6 -7 10 -15 10 -8 0
-15 -2 -15 -4z"/>
<path d="M2215 2228 c30 -16 31 -18 15 -28 -8 -5 -12 -12 -9 -15 9 -8 39 5 39
17 0 16 -27 38 -47 38 -16 -1 -16 -2 2 -12z"/>
<path d="M685 2200 c-19 -8 -19 -9 2 -9 12 -1 25 4 28 9 7 12 -2 12 -30 0z"/>
<path d="M472 2174 c-7 -8 -8 -14 -3 -14 10 0 25 19 20 25 -2 1 -10 -3 -17
-11z"/>
<path d="M2235 2161 c-6 -11 13 -26 22 -17 4 3 0 6 -8 6 -11 0 -11 2 1 10 9 6
10 10 3 10 -6 0 -14 -4 -18 -9z"/>
<path d="M1910 2140 c0 -15 7 -20 25 -20 30 0 33 15 6 30 -27 14 -31 13 -31
-10z"/>
<path d="M2126 2132 c-3 -6 1 -15 8 -21 8 -7 17 -8 20 -3 3 6 -1 15 -8 21 -8
7 -17 8 -20 3z"/>
<path d="M2210 2105 c0 -8 7 -15 15 -15 8 0 15 7 15 15 0 8 -7 15 -15 15 -8 0
-15 -7 -15 -15z"/>
<path d="M2011 2102 c-1 -8 -9 -10 -25 -6 -13 3 -27 1 -30 -4 -7 -12 38 -22
55 -12 6 4 9 14 6 21 -4 10 -6 11 -6 1z"/>
<path d="M1883 2094 c3 -4 2 -15 -4 -25 -7 -15 -6 -17 6 -13 8 3 12 10 9 15
-3 5 2 6 10 3 9 -3 16 -2 16 4 0 5 -7 13 -16 16 -20 8 -29 8 -21 0z"/>
<path d="M2233 2083 c-16 -6 2 -43 20 -43 7 0 6 4 -3 10 -13 9 -13 10 0 10 12
0 13 2 1 9 -11 7 -11 9 0 14 8 3 10 5 4 5 -5 0 -16 -2 -22 -5z"/>
<path d="M495 2070 c3 -5 12 -10 20 -10 8 0 17 5 20 10 4 6 -5 10 -20 10 -15
0 -24 -4 -20 -10z"/>
<path d="M1962 2058 c6 -18 28 -21 28 -4 0 9 -7 16 -16 16 -9 0 -14 -5 -12
-12z"/>
<path d="M2000 2053 c0 -6 5 -15 11 -18 6 -4 8 -13 5 -20 -3 -8 4 -17 15 -20
22 -7 25 -21 7 -28 -10 -4 -10 -8 1 -15 8 -6 10 -15 6 -22 -5 -8 -3 -11 6 -8
8 3 14 14 14 25 0 12 3 25 8 29 4 4 7 -9 7 -29 0 -26 4 -37 15 -37 11 0 15 12
15 50 0 28 -3 50 -8 50 -4 0 -6 -21 -3 -47 5 -69 -5 -50 -13 24 -6 53 -5 62 8
57 7 -3 16 -2 19 3 6 9 -4 12 -70 16 -29 2 -43 -2 -43 -10z m67 -43 c-2 -24
-21 -21 -25 3 -2 10 3 17 12 17 9 0 14 -8 13 -20z"/>
<path d="M2195 2060 c-3 -5 -1 -10 4 -10 6 0 11 5 11 10 0 6 -2 10 -4 10 -3 0
-8 -4 -11 -10z"/>
<path d="M2161 2044 c0 -11 3 -14 6 -6 3 7 2 16 -1 19 -3 4 -6 -2 -5 -13z"/>
<path d="M1875 2010 c-3 -5 -3 -10 2 -10 4 0 1 -5 -7 -10 -8 -5 -10 -10 -5
-10 6 0 17 5 25 10 13 9 13 10 0 10 -13 0 -13 1 0 10 9 6 10 10 3 10 -6 0 -15
-4 -18 -10z"/>
<path d="M2133 1960 c0 -25 2 -35 4 -22 2 12 2 32 0 45 -2 12 -4 2 -4 -23z"/>
<path d="M160 1830 c0 -13 11 -13 30 0 12 8 11 10 -7 10 -13 0 -23 -4 -23 -10z"/>
<path d="M323 1823 c15 -2 39 -2 55 0 15 2 2 4 -28 4 -30 0 -43 -2 -27 -4z"/>
<path d="M599 1829 c-7 -30 -4 -56 8 -55 28 4 34 22 13 41 -11 10 -20 16 -21
14z m27 -36 c-10 -11 -19 -7 -22 10 -2 15 0 16 12 6 8 -6 12 -14 10 -16z"/>
<path d="M416 1388 c3 -5 10 -6 15 -3 13 9 11 12 -6 12 -8 0 -12 -4 -9 -9z"/>
<path d="M1910 1360 c-12 -7 -10 -9 7 -7 12 0 19 5 17 9 -6 10 -6 10 -24 -2z"/>
<path d="M618 1253 c7 -3 16 -2 19 1 4 3 -2 6 -13 5 -11 0 -14 -3 -6 -6z"/>
<path d="M1536 1115 c4 -8 7 -15 9 -15 2 0 5 7 9 15 3 9 0 15 -9 15 -9 0 -12
-6 -9 -15z"/>
<path d="M1920 880 c-13 -8 -12 -10 3 -10 9 0 17 -4 17 -8 0 -5 7 -9 15 -9 10
0 14 6 10 14 -3 8 -5 17 -5 19 0 7 -25 4 -40 -6z"/>
<path d="M1836 844 c-4 -14 -5 -29 -2 -31 3 -3 8 7 12 21 3 15 4 29 1 32 -2 3
-8 -7 -11 -22z"/>
<path d="M1890 850 c0 -5 -7 -10 -15 -10 -10 0 -14 -9 -13 -24 2 -17 6 -22 14
-16 16 14 24 1 18 -29 -4 -18 -3 -22 4 -12 8 11 10 11 15 0 4 -11 6 -11 7 1 1
8 3 23 5 33 2 9 -1 15 -6 11 -5 -3 -9 2 -9 10 0 9 7 16 15 16 9 0 12 6 9 15
-7 17 -44 21 -44 5z"/>
<path d="M1978 833 c7 -3 16 -2 19 1 4 3 -2 6 -13 5 -11 0 -14 -3 -6 -6z"/>
<path d="M1751 713 c7 -12 15 -20 18 -17 3 2 -3 12 -13 22 -17 16 -18 16 -5
-5z"/>
<path d="M1876 715 c-3 -8 -1 -15 4 -15 6 0 10 7 10 15 0 8 -2 15 -4 15 -2 0
-6 -7 -10 -15z"/>
<path d="M2240 640 c-6 -11 -8 -25 -5 -30 3 -6 1 -10 -5 -10 -7 0 -10 -7 -6
-15 4 -11 -1 -15 -17 -15 -14 0 -18 -3 -10 -8 13 -8 6 -52 -8 -52 -5 0 -9 -7
-9 -15 0 -8 -10 -24 -22 -35 -19 -18 -20 -22 -8 -30 13 -8 12 -10 -2 -10 -10
0 -18 -6 -18 -14 0 -8 -6 -17 -12 -19 -8 -3 -6 -6 5 -6 9 -1 17 -8 17 -17 0
-8 -4 -13 -9 -10 -5 3 -8 -5 -7 -19 0 -14 2 -25 4 -25 2 0 17 13 35 30 18 16
38 30 45 30 11 0 14 7 11 26 0 4 5 11 13 15 20 13 -8 12 -33 -1 -16 -9 -19 -7
-19 15 0 14 6 28 14 31 8 3 12 13 9 25 -3 10 0 19 6 19 6 0 10 -6 9 -12 -2 -7
7 -14 20 -16 22 -3 22 -1 22 92 0 53 -2 96 -5 96 -2 0 -9 -9 -15 -20z m-70
-280 c0 -5 -4 -10 -10 -10 -5 0 -10 5 -10 10 0 6 5 10 10 10 6 0 10 -4 10 -10z"/>
<path d="M1710 524 c0 -8 5 -12 10 -9 6 3 10 10 10 16 0 5 -4 9 -10 9 -5 0
-10 -7 -10 -16z"/>
<path d="M2210 450 c0 -5 7 -10 15 -10 8 0 15 5 15 10 0 6 -7 10 -15 10 -8 0
-15 -4 -15 -10z"/>
<path d="M690 331 c0 -6 4 -13 10 -16 6 -3 7 1 4 9 -7 18 -14 21 -14 7z"/>
<path d="M756 316 c3 -9 13 -16 22 -16 8 0 13 1 11 3 -2 1 -12 9 -22 16 -15
12 -17 12 -11 -3z"/>
<path d="M2243 305 c-6 -16 -17 -52 -24 -80 -6 -27 -23 -75 -37 -105 -28 -60
-29 -63 -31 -86 0 -9 -6 -12 -13 -8 -7 4 -8 3 -4 -4 4 -7 32 -12 67 -12 l59 0
0 50 c0 51 -11 64 -29 33 -8 -15 -10 -14 -16 10 -6 21 -1 37 19 68 23 34 27
49 24 102 -3 59 -4 60 -15 32z"/>
<path d="M720 291 c0 -10 50 -25 58 -16 8 7 1 11 -30 19 -16 3 -28 2 -28 -3z"/>
<path d="M1245 269 c0 -16 3 -29 8 -29 4 0 7 11 7 24 0 14 -3 27 -7 29 -5 3
-8 -8 -8 -24z"/>
<path d="M2120 285 c0 -8 5 -15 10 -15 6 0 10 7 10 15 0 8 -4 15 -10 15 -5 0
-10 -7 -10 -15z"/>
<path d="M1320 248 c0 -9 5 -20 11 -23 17 -11 20 0 4 21 -13 17 -14 17 -15 2z"/>
<path d="M2105 251 c-3 -5 -2 -12 3 -15 5 -3 9 1 9 9 0 17 -3 19 -12 6z"/>
<path d="M1363 230 c-1 -11 2 -20 8 -20 5 0 9 9 9 20 0 11 -4 20 -8 20 -4 0
-8 -9 -9 -20z"/>
<path d="M0 119 c0 -71 4 -108 10 -104 5 3 10 44 10 90 0 46 4 87 10 90 18 11
11 35 -10 35 -19 0 -20 -7 -20 -111z"/>
<path d="M1270 220 c0 -5 5 -10 11 -10 6 0 8 -9 4 -20 -3 -11 -2 -20 4 -20 17
0 22 19 11 40 -11 21 -30 27 -30 10z"/>
<path d="M2071 192 c-8 -18 -11 -35 -8 -38 8 -9 29 35 25 54 -2 12 -8 7 -17
-16z"/>
<path d="M50 70 c0 -5 5 -10 10 -10 6 0 10 5 10 10 0 6 -4 10 -10 10 -5 0 -10
-4 -10 -10z"/>
</g>
</svg>
